<svg width="103" height="103" viewBox="0 0 103 103" fill="none" xmlns="http://www.w3.org/2000/svg">
<g id="Rectangle Copy 3">
<path id="Mask" d="M0 0H83C94.0457 0 103 8.9543 103 20V83C103 94.0457 94.0457 103 83 103H0V0Z" fill="#7C5DFA"/>
<mask id="mask0_26_254" style="mask-type:luminance" maskUnits="userSpaceOnUse" x="0" y="0" width="103" height="103">
<path id="Mask_2" d="M0 0H83C94.0457 0 103 8.9543 103 20V83C103 94.0457 94.0457 103 83 103H0V0Z" fill="white"/>
</mask>
<g mask="url(#mask0_26_254)">
<path id="Rectangle Copy 3_2" d="M103 52H20C8.95431 52 0 60.9543 0 72V135C0 146.046 8.95431 155 20 155H103V52Z" fill="#9277FF"/>
</g>
</g>
</svg>
